<svg width="16" height="16" xmlns="http://www.w3.org/2000/svg" class="bi bi-bootstrap">

 <g>
  <title>Layer 1</title>
  <path id="svg_1" d="m5.062,12l3.475,0c1.804,0 2.888,-0.908 2.888,-2.396c0,-1.102 -0.761,-1.916 -1.904,-2.034l0,-0.1c0.832,-0.14 1.482,-0.93 1.482,-1.816c0,-1.3 -0.955,-2.11 -2.542,-2.11l-3.399,0l0,8.456zm1.313,-4.875l0,-2.467l1.78,0c0.973,0 1.542,0.457 1.542,1.237c0,0.802 -0.604,1.23 -1.764,1.23l-1.558,0zm0,3.762l0,-2.725l1.822,0c1.236,0 1.887,0.463 1.887,1.348c0,0.896 -0.627,1.377 -1.811,1.377l-1.898,0z"/>
  <path id="svg_2" d="m0,4a4,4 0 0 1 4,-4l8,0a4,4 0 0 1 4,4l0,8a4,4 0 0 1 -4,4l-8,0a4,4 0 0 1 -4,-4l0,-8zm4,-3a3,3 0 0 0 -3,3l0,8a3,3 0 0 0 3,3l8,0a3,3 0 0 0 3,-3l0,-8a3,3 0 0 0 -3,-3l-8,0z"/>
 </g>
</svg>